# xmcd
#
# Track frame offsets: 
#        183
#        13383
#        28233
#        42108
#        55030
#        68458
#        79753
#        92618
#        107750
#        120453
#        131743
#        146528
#        159108
#        172560
#        183423
#        195643
#        207733
#        220868
#        232780
#        245150
#        255895
#        268490
#        278705
#        291690
#        303290
#
# Disc length: 4212 seconds
#
# Revision: 2
# Processed by: cddbd v1.5.2PL0 Copyright (c) Steve Scherf et al.
# Submitted via: ExactAudioCopyFreeDBPlugin 1.0
#
DISCID=64107219
DTITLE=Elmore James - The Elmore James Story
DYEAR=1989
DGENRE=Blues
TTITLE0=Dust My Broom
TTITLE1=Sunnyland
TTITLE2=Hand In Hand
TTITLE3=Sho' Nuff I Do
TTITLE4=Where Can My Baby Be
TTITLE5=Look On Yonder Wall
TTITLE6=I Was A Fool
TTITLE7=Wild About You Baby
TTITLE8=The Sky Is Crying
TTITLE9=Strange Kinda Feeling
TTITLE10=1839 Blues
TTITLE11=Dark And Dreary
TTITLE12=Standing At The Crossroads
TTITLE13=Coming Home
TTITLE14=Mean Mistreatin' Mama
TTITLE15=My Best Friend
TTITLE16=Long Tall Woman
TTITLE17=My Best Friend - Reprise
TTITLE18=Blues Before Sunrise
TTITLE19=I Done Somebody Wrong
TTITLE20=Make A Little Love
TTITLE21=Mean And Evil
TTITLE22=Sinful Woman
TTITLE23=So Mean To Me
TTITLE24=Happy Home
EXTD=
EXTT0=
EXTT1=
EXTT2=
EXTT3=
EXTT4=
EXTT5=
EXTT6=
EXTT7=
EXTT8=
EXTT9=
EXTT10=
EXTT11=
EXTT12=
EXTT13=
EXTT14=
EXTT15=
EXTT16=
EXTT17=
EXTT18=
EXTT19=
EXTT20=
EXTT21=
EXTT22=
EXTT23=
EXTT24=
PLAYORDER=
